<mxfile host="app.diagrams.net" modified="2021-03-24T13:18:22.259Z" agent="5.0 (Windows)" etag="iKzofs61UOIj_g0T0_KT" version="14.4.9" type="github">
  <diagram id="6a731a19-8d31-9384-78a2-239565b7b9f0" name="Page-1">
    <mxGraphModel dx="1002" dy="683" grid="1" gridSize="10" guides="1" tooltips="1" connect="1" arrows="1" fold="1" page="1" pageScale="1" pageWidth="1169" pageHeight="827" background="#ffffff" math="0" shadow="0">
      <root>
        <mxCell id="0" />
        <mxCell id="1" parent="0" />
        <mxCell id="1350" value="&lt;span class=&quot;ILfuVd&quot;&gt;&lt;span class=&quot;hgKElc&quot;&gt;&lt;b&gt;Theoretical Knowledge&lt;/b&gt;&lt;/span&gt;&lt;/span&gt;" style="ellipse;whiteSpace=wrap;html=1;shadow=0;fontFamily=Helvetica;fontSize=20;fontColor=#FFFFFF;align=center;strokeWidth=3;fillColor=#1699D3;strokeColor=none;" parent="1" vertex="1">
          <mxGeometry x="180" y="224" width="120" height="120" as="geometry" />
        </mxCell>
        <mxCell id="1351" value="Work Experience" style="ellipse;whiteSpace=wrap;html=1;shadow=0;fontFamily=Helvetica;fontSize=20;fontColor=#FFFFFF;align=center;strokeWidth=3;fillColor=#F08705;strokeColor=none;gradientColor=none;fontStyle=1" parent="1" vertex="1">
          <mxGeometry x="500" y="354" width="120" height="120" as="geometry" />
        </mxCell>
        <mxCell id="1367" value="Business Intelligence" style="rounded=1;fillColor=#64BBE2;strokeColor=none;strokeWidth=3;shadow=0;html=1;fontColor=#FFFFFF;" parent="1" vertex="1">
          <mxGeometry x="40" y="160" width="130" height="40" as="geometry" />
        </mxCell>
        <mxCell id="1378" value="" style="edgeStyle=none;endArrow=none;strokeWidth=3;strokeColor=#64BBE2;html=1;" parent="1" source="1350" target="1367" edge="1">
          <mxGeometry x="-565" y="9" width="100" height="100" as="geometry">
            <mxPoint x="-565" y="109" as="sourcePoint" />
            <mxPoint x="-465" y="9" as="targetPoint" />
          </mxGeometry>
        </mxCell>
        <mxCell id="1398" value="Bumblebee" style="rounded=1;fillColor=#f5af58;strokeColor=none;strokeWidth=3;shadow=0;html=1;fontColor=#FFFFFF;" parent="1" vertex="1">
          <mxGeometry x="690" y="394" width="120" height="40" as="geometry" />
        </mxCell>
        <mxCell id="1410" value="" style="edgeStyle=none;endArrow=none;strokeWidth=3;strokeColor=#F5AF58;html=1;" parent="1" source="1351" target="1398" edge="1">
          <mxGeometry x="-600" y="134" width="100" height="100" as="geometry">
            <mxPoint x="-600" y="234" as="sourcePoint" />
            <mxPoint x="-500" y="134" as="targetPoint" />
          </mxGeometry>
        </mxCell>
        <mxCell id="1516" value="Practical Application" style="ellipse;whiteSpace=wrap;html=1;shadow=0;fontFamily=Helvetica;fontSize=20;fontColor=#FFFFFF;align=center;strokeWidth=3;fillColor=#736ca8;strokeColor=none;fontStyle=1" parent="1" vertex="1">
          <mxGeometry x="170" y="550" width="120" height="120" as="geometry" />
        </mxCell>
        <mxCell id="1523" value="Lime" style="rounded=1;fillColor=#a29dc5;strokeColor=none;strokeWidth=3;shadow=0;html=1;fontColor=#FFFFFF;" parent="1" vertex="1">
          <mxGeometry x="30" y="680" width="120" height="40" as="geometry" />
        </mxCell>
        <mxCell id="1535" value="" style="edgeStyle=none;endArrow=none;strokeWidth=3;strokeColor=#A29DC5;html=1;" parent="1" source="1516" target="1523" edge="1">
          <mxGeometry x="-1640" y="-475" width="100" height="100" as="geometry">
            <mxPoint x="-1640" y="-375" as="sourcePoint" />
            <mxPoint x="-1540" y="-475" as="targetPoint" />
          </mxGeometry>
        </mxCell>
        <mxCell id="ySkJhD_-2FWQWEVfoGKT-1542" value="Python" style="rounded=1;fillColor=#60a917;strokeColor=#2D7600;strokeWidth=3;shadow=0;html=1;fontColor=#ffffff;arcSize=50;" vertex="1" parent="1">
          <mxGeometry x="280" y="414" width="120" height="40" as="geometry" />
        </mxCell>
        <mxCell id="ySkJhD_-2FWQWEVfoGKT-1544" value="" style="edgeStyle=none;endArrow=none;strokeWidth=3;html=1;fillColor=#008a00;strokeColor=#005700;" edge="1" parent="1" source="ySkJhD_-2FWQWEVfoGKT-1542" target="1350">
          <mxGeometry x="-538.67" y="227.17" width="100" height="100" as="geometry">
            <mxPoint x="225.35696731612558" y="458.33838364050655" as="sourcePoint" />
            <mxPoint x="179.99666666666673" y="409.66999999999996" as="targetPoint" />
          </mxGeometry>
        </mxCell>
        <mxCell id="ySkJhD_-2FWQWEVfoGKT-1545" value="" style="edgeStyle=none;endArrow=none;strokeWidth=3;html=1;fillColor=#008a00;strokeColor=#005700;" edge="1" parent="1" source="ySkJhD_-2FWQWEVfoGKT-1542" target="1351">
          <mxGeometry x="-365.3399999999999" y="483.16999999999996" width="100" height="100" as="geometry">
            <mxPoint x="499.9966666666668" y="670" as="sourcePoint" />
            <mxPoint x="446.6120117735137" y="589.9230176602705" as="targetPoint" />
          </mxGeometry>
        </mxCell>
        <mxCell id="ySkJhD_-2FWQWEVfoGKT-1546" value="" style="endArrow=none;html=1;strokeColor=#005700;strokeWidth=3;fillColor=#008a00;" edge="1" parent="1" source="ySkJhD_-2FWQWEVfoGKT-1542" target="1516">
          <mxGeometry width="50" height="50" relative="1" as="geometry">
            <mxPoint x="410" y="470" as="sourcePoint" />
            <mxPoint x="460" y="420" as="targetPoint" />
          </mxGeometry>
        </mxCell>
      </root>
    </mxGraphModel>
  </diagram>
</mxfile>
